<svg width="32" height="32" viewBox="0 0 40 40" fill="none" xmlns="http://www.w3.org/2000/svg">
  <rect x="2" y="2" width="36" height="36" rx="9" fill="#000d1a" />
  <line x1="4" y1="10" x2="36" y2="10" stroke="#4a5568" stroke-width="1" stroke-linecap="round" />
  <line x1="7" y1="10" x2="7" y2="7.5" stroke="#4a5568" stroke-width="0.8" stroke-linecap="round" />
  <line x1="12" y1="10" x2="12" y2="8" stroke="#4a5568" stroke-width="0.8" stroke-linecap="round" />
  <line x1="17" y1="10" x2="17" y2="7.5" stroke="#4a5568" stroke-width="0.8" stroke-linecap="round" />
  <line x1="22" y1="10" x2="22" y2="8" stroke="#4a5568" stroke-width="0.8" stroke-linecap="round" />
  <line x1="27" y1="10" x2="27" y2="7.5" stroke="#4a5568" stroke-width="0.8" stroke-linecap="round" />
  <line x1="32" y1="10" x2="32" y2="8" stroke="#4a5568" stroke-width="0.8" stroke-linecap="round" />
  <rect x="5" y="10" width="30" height="24" rx="3" fill="#000912" stroke="#00a1e0" stroke-width="1.2" />
  <circle cx="15" cy="19" r="3" fill="#e6edf3" />
  <rect x="13" y="22" width="4" height="6" rx="1.5" fill="#e6edf3" />
  <rect x="13" y="26" width="2" height="4" rx="1" fill="#e6edf3" />
  <rect x="15" y="26" width="2" height="4" rx="1" fill="#e6edf3" />
  <rect x="21" y="21" width="3" height="9" rx="1" fill="#00a1e0" />
  <rect x="23" y="23" width="3" height="7" rx="1" fill="#00a1e0" opacity="0.7" />
  <rect x="25" y="26" width="3" height="4" rx="1" fill="#00a1e0" opacity="0.5" />
  <polyline points="21,21 23,18 25,16" fill="none" stroke="#00a1e0" stroke-width="1" stroke-linecap="round" stroke-linejoin="round" opacity="0.5" />
</svg>
